<?xml version="1.0" encoding="UTF-8"?>
<svg width="260px" height="60px" viewBox="0 0 260 60" version="1.1" xmlns="http://www.w3.org/2000/svg" xmlns:xlink="http://www.w3.org/1999/xlink">
    <!-- Generator: Sketch 64 (93537) - https://sketch.com -->
    <title>logo-2020</title>
    <desc>Created with Sketch.</desc>
    <g id="Page-1" stroke="none" stroke-width="1" fill="none" fill-rule="evenodd">
        <g id="logo-2020" fill="#000000" fill-rule="nonzero">
            <path d="M249.4,36.9 C248,36.9 246.9,37.6 246.4,38.9 C245.9,40.1 245.7,42.3 245.7,45.5 C245.7,48.9 245.9,51.2 246.4,52.5 C246.9,53.9 247.9,54.7 249.4,54.7 C250.8,54.7 251.8,54 252.3,52.5 C252.8,51.2 253,48.9 253,45.5 C253,42.3 252.8,40.1 252.3,38.9 C251.8,37.6 250.8,36.9 249.4,36.9 Z M251.6,52.3 C251.2,53.4 250.5,54 249.4,54 C248.3,54 247.5,53.5 247.1,52.3 C246.6,51.1 246.4,48.8 246.4,45.5 C246.4,42.4 246.6,40.3 247.1,39.2 C247.5,38.2 248.3,37.7 249.4,37.7 C250.5,37.7 251.3,38.2 251.7,39.2 C252.1,40.3 252.4,42.5 252.4,45.5 C252.3,48.8 252.1,51.1 251.6,52.3 Z" id="Shape"></path>
            <path d="M249.4,32.2 C245.5,32.2 242.7,33.6 241.2,36.5 C240.1,38.6 239.5,41.6 239.5,45.5 C239.5,49.6 240,52.8 241.1,54.8 C242.6,57.8 245.5,59.4 249.5,59.4 C253.5,59.4 256.3,57.9 257.8,54.8 C258.8,52.8 259.4,49.6 259.4,45.5 C259.4,41.5 258.8,38.5 257.7,36.4 C256,33.6 253.3,32.2 249.4,32.2 Z M257.1,54.5 C255.7,57.3 253.2,58.6 249.4,58.6 C245.6,58.6 243.1,57.2 241.7,54.5 C240.7,52.5 240.2,49.5 240.2,45.5 C240.2,41.7 240.7,38.8 241.8,36.8 C243.3,34.2 245.7,32.9 249.4,32.9 C253,32.9 255.5,34.2 256.9,36.8 C258,38.7 258.5,41.7 258.5,45.5 C258.5,49.5 258,52.6 257.1,54.5 Z" id="Shape"></path>
            <path d="M228.3,49.2 C230.7,47.5 232.4,46.1 233.2,45 C234.3,43.6 234.9,41.9 234.9,40.1 C234.9,34.9 231.7,32.2 225.4,32.2 C222.2,32.2 219.7,33.1 218,34.8 C216.4,36.4 215.5,38.6 215.5,41.5 L215.5,41.9 L221.5,41.9 L221.5,41.5 C221.6,38.9 222.9,37.7 225.5,37.7 C227.2,37.7 228,38.5 228,40.2 C228,41 227.7,41.7 227.2,42.2 C226.7,42.7 225.6,43.6 223.9,44.7 C221.2,46.6 219.2,48.2 218.1,49.7 C216.2,52.1 215.3,55.1 215.3,58.6 L215.3,59 L234.8,59 L234.8,51 L228.7,51 L228.7,53.3 L223.6,53.3 C223.9,52.8 224.4,52.3 224.9,51.8 C225.4,51.3 226.5,50.4 228.3,49.2 Z M222.5,53.5 L222.2,54 L229.3,54 L229.3,51.7 L233.9,51.7 L233.9,58 L215.9,58 C216,54.9 216.9,52.2 218.6,50 C219.7,48.6 221.6,47 224.2,45.2 C226,44 227.1,43.1 227.6,42.6 C228.2,41.9 228.6,41 228.6,40.1 C228.6,38 227.5,36.9 225.3,36.9 C222.5,36.9 220.9,38.3 220.6,41.1 L216.1,41.1 C216.2,38.7 217,36.7 218.4,35.3 C220,33.7 222.3,32.9 225.3,32.9 C231.2,32.9 234.1,35.2 234.1,40.1 C234.1,41.8 233.6,43.3 232.6,44.6 C231.8,45.6 230.2,46.9 227.8,48.6 C226,49.8 224.9,50.7 224.3,51.3 C223.5,51.9 222.9,52.7 222.5,53.5 Z" id="Shape"></path>
            <path d="M225.4,0.2 C222.2,0.2 219.7,1.1 218,2.8 C216.4,4.4 215.5,6.7 215.5,9.5 L215.5,9.9 L221.5,9.9 L221.5,9.5 C221.6,6.9 222.9,5.7 225.5,5.7 C227.2,5.7 228,6.5 228,8.2 C228,9 227.7,9.7 227.2,10.2 C226.7,10.7 225.6,11.6 223.9,12.7 C221.2,14.6 219.2,16.2 218.1,17.7 C216.2,20.1 215.3,23.1 215.3,26.6 L215.3,27 L234.8,27 L234.8,19 L228.7,19 L228.7,21.3 L223.6,21.3 C223.9,20.8 224.4,20.3 224.9,19.8 C225.5,19.3 226.6,18.4 228.4,17.2 C230.9,15.5 232.5,14.1 233.3,13 C234.4,11.6 235,9.9 235,8.1 C234.9,2.8 231.7,0.2 225.4,0.2 Z M232.6,12.6 C231.8,13.6 230.2,14.9 227.8,16.6 C226,17.8 224.9,18.7 224.3,19.3 C223.5,20 222.9,20.8 222.5,21.6 L222.2,22.1 L229.3,22.1 L229.3,19.8 L233.9,19.8 L233.9,26.1 L215.9,26.1 C216,23 216.9,20.3 218.6,18.1 C219.7,16.7 221.6,15.1 224.2,13.3 C226,12.1 227.1,11.2 227.6,10.7 C228.2,10 228.6,9.1 228.6,8.2 C228.6,6.1 227.5,5 225.3,5 C222.5,5 220.9,6.4 220.6,9.2 L216.1,9.2 C216.2,6.8 217,4.8 218.4,3.4 C220,1.8 222.3,1 225.3,1 C231.2,1 234.1,3.3 234.1,8.2 C234.1,9.8 233.6,11.3 232.6,12.6 Z" id="Shape"></path>
            <path d="M249.4,22.7 C250.8,22.7 251.8,22 252.3,20.5 C252.8,19.2 253,16.9 253,13.5 C253,10.3 252.8,8.1 252.3,6.9 C251.8,5.6 250.8,4.9 249.3,4.9 C247.9,4.9 246.8,5.6 246.3,6.9 C245.8,8.1 245.6,10.3 245.6,13.5 C245.6,16.9 245.8,19.2 246.3,20.5 C246.9,22 247.9,22.7 249.4,22.7 Z M247.1,7.2 C247.5,6.2 248.3,5.7 249.4,5.7 C250.5,5.7 251.3,6.2 251.7,7.2 C252.1,8.3 252.4,10.5 252.4,13.5 C252.4,16.8 252.2,19.1 251.7,20.3 C251.3,21.4 250.6,22 249.5,22 C248.4,22 247.6,21.5 247.2,20.3 C246.7,19.1 246.5,16.8 246.5,13.5 C246.4,10.4 246.6,8.3 247.1,7.2 Z" id="Shape"></path>
            <path d="M249.4,27.4 C253.4,27.4 256.2,25.9 257.7,22.8 C258.7,20.8 259.3,17.6 259.3,13.5 C259.3,9.5 258.7,6.5 257.6,4.4 C256,1.6 253.3,0.1 249.4,0.1 C245.5,0.1 242.7,1.5 241.2,4.4 C240.1,6.5 239.5,9.5 239.5,13.4 C239.5,17.5 240,20.7 241.1,22.7 C242.6,25.9 245.4,27.4 249.4,27.4 Z M241.8,4.8 C243.3,2.2 245.7,0.9 249.4,0.9 C253,0.9 255.5,2.2 256.9,4.8 L256.9,4.8 C258,6.7 258.5,9.7 258.5,13.5 C258.5,17.5 258,20.6 257,22.5 C255.6,25.3 253.1,26.6 249.3,26.6 C245.5,26.6 243,25.2 241.6,22.5 C240.6,20.5 240.1,17.5 240.1,13.5 C240.2,9.7 240.7,6.8 241.8,4.8 Z" id="Shape"></path>
            <polygon id="Path" points="20.3 14.6 4 14.6 4 0.6 0.5 0.6 0.5 32.3 4 32.3 4 18.2 20.3 18.2 20.3 32.3 23.8 32.3 23.8 0.6 20.3 0.6"></polygon>
            <rect id="Rectangle" x="34" y="28.9" width="20.2" height="3.4"></rect>
            <path d="M44.3,0.6 C38,0.6 32.8,5.8 32.8,12.1 C32.8,18.4 38,23.6 44.3,23.6 C50.6,23.6 55.8,18.4 55.8,12.1 C55.8,5.8 50.6,0.6 44.3,0.6 Z M44.3,20.2 C39.9,20.2 36.2,16.6 36.2,12.1 C36.2,7.7 39.8,4 44.3,4 C48.7,4 52.4,7.6 52.4,12.1 C52.3,16.5 48.7,20.2 44.3,20.2 Z" id="Shape"></path>
            <path d="M78.2,18 L79.6,17.6 C82.6,16.8 86.3,14.6 86.3,9.4 C86.3,0.7 76.5,0.6 76.1,0.6 L65.9,0.6 L65.9,4.9 L72.2,14.8 L65.9,14.8 L65.9,32.4 L69.4,32.4 L69.4,18.2 L74.3,18.2 L83.1,32.3 L87.1,32.3 L78.2,18 Z M76.2,14.7 L69.5,4 L76,4 C78.3,4 82.8,5.1 82.8,9.3 C82.8,12.3 80.6,14.2 76.9,14.6 L76.2,14.7 Z" id="Shape"></path>
            <rect id="Rectangle" x="96.8" y="0.6" width="3.5" height="31.7"></rect>
            <polygon id="Path" points="134.9 0.5 110.5 0.5 110.5 3.9 128.8 3.9 111.4 32.2 135.8 32.2 135.8 28.7 117.6 28.7"></polygon>
            <path d="M157.3,23.6 C163.6,23.6 168.8,18.4 168.8,12.1 C168.8,5.8 163.6,0.6 157.3,0.6 C151,0.6 145.8,5.8 145.8,12.1 C145.8,18.4 151,23.6 157.3,23.6 Z M157.3,4 C161.7,4 165.4,7.6 165.4,12.1 C165.4,16.5 161.8,20.2 157.3,20.2 C152.9,20.2 149.2,16.6 149.2,12.1 C149.2,7.6 152.9,4 157.3,4 Z" id="Shape"></path>
            <rect id="Rectangle" x="147.1" y="28.9" width="20.2" height="3.4"></rect>
            <polygon id="Path" points="201.5 27.1 183 0.6 178.9 0.6 178.9 32.3 182.4 32.3 182.4 5.8 200.9 32.3 205 32.3 205 0.6 201.5 0.6"></polygon>
            <path d="M1.5,58.5 L5.1,58.5 L5.1,53 C5.1,52.9 5.1,52.8 5,52.6 L10.1,52.6 L10.1,49.7 L5,49.7 L5,47 L10.6,47 L11.6,44 L1.5,44 L1.5,58.5 Z" id="Path"></path>
            <path d="M28.7,58.5 L39.2,58.5 L39.2,55.5 L32.3,55.5 L32.3,52.8 C32.3,52.7 32.3,52.6 32.2,52.4 L37.7,52.4 L38.6,49.4 L32.3,49.4 L32.3,47 L39.2,47 L39.2,44 L28.7,44 L28.7,58.5 Z" id="Path"></path>
            <path d="M64.4,49.6 C64.3,49.6 63.2,49.4 61.2,49.1 C60.5,49 60.2,48.6 60.2,47.9 C60.2,47 60.9,46.6 62.3,46.6 C63.6,46.6 64.5,47.1 65.1,48 L68,46.6 C66.8,44.7 64.9,43.7 62.3,43.7 C60.6,43.7 59.3,44.1 58.2,44.8 C57.1,45.6 56.6,46.6 56.6,48 C56.6,49.3 56.9,50.3 57.6,51 C58.2,51.6 59,52 60.1,52.2 C60.1,52.2 61.1,52.4 63.2,52.7 C64.1,52.8 64.5,53.3 64.5,54.1 C64.5,55.2 63.7,55.8 62.1,55.8 C60.7,55.8 59.7,55.2 58.9,53.9 L56.1,55.3 C57.3,57.6 59.3,58.8 62.1,58.8 C64,58.8 65.4,58.4 66.5,57.6 C67.5,56.8 68.1,55.6 68.1,54.1 C68.1,52.7 67.7,51.7 67,50.9 C66.5,50.3 65.6,49.8 64.4,49.6 Z" id="Path"></path>
            <polygon id="Path" points="84.5 46.9 88.7 46.9 88.7 58.5 92.3 58.5 92.3 46.9 96.4 46.9 96.4 44 84.5 44"></polygon>
            <polygon id="Path" points="113 45.8 114.6 45.8 114.6 56.6 113 56.6 113 58.5 119.7 58.5 119.7 56.6 118.2 56.6 118.2 45.8 119.7 45.8 119.7 44 113 44"></polygon>
            <path d="M143.2,52.6 C143.1,53.2 143,53.6 143,53.8 C142.9,53.1 142.9,52.7 142.8,52.6 L139.8,44 L135.8,44 L141.2,58.5 L144.6,58.5 L150,44 L146,44 L143.2,52.6 Z" id="Path"></path>
            <path d="M169.6,44 L164,58.5 L167.6,58.5 L168.7,55.6 L173.5,55.6 L174.6,58.5 L178.4,58.5 L172.8,44 L169.6,44 Z M169.8,52.6 L170.9,49.5 C171,49.3 171.1,49 171.1,48.9 C171.1,49.1 171.2,49.4 171.3,49.5 L172.4,52.6 L169.8,52.6 Z" id="Shape"></path>
            <polygon id="Path" points="198.8 44 195.2 44 195.2 58.5 204.5 58.5 204.5 55.3 198.8 55.3"></polygon>
        </g>
    </g>
</svg>